solid cube_hollow
   facet normal 0.000000e+00 -0.000000e+00 -1.000000e+00
      outer loop
         vertex 6.349999e+00 6.349999e+00 0.000000e+00
         vertex 1.016000e+02 0.000000e+00 0.000000e+00
         vertex 0.000000e+00 0.000000e+00 0.000000e+00
      endloop
   endfacet
   facet normal 0.000000e+00 -0.000000e+00 -1.000000e+00
      outer loop
         vertex 6.349999e+00 9.525000e+01 0.000000e+00
         vertex 6.349999e+00 6.349999e+00 0.000000e+00
         vertex 0.000000e+00 0.000000e+00 0.000000e+00
      endloop
   endfacet
   facet normal 0.000000e+00 0.000000e+00 -1.000000e+00
      outer loop
         vertex 0.000000e+00 1.016000e+02 0.000000e+00
         vertex 6.349999e+00 9.525000e+01 0.000000e+00
         vertex 0.000000e+00 0.000000e+00 0.000000e+00
      endloop
   endfacet
   facet normal -1.000000e+00 0.000000e+00 0.000000e+00
      outer loop
         vertex 0.000000e+00 0.000000e+00 1.016000e+02
         vertex 0.000000e+00 1.016000e+02 1.016000e+02
         vertex 0.000000e+00 0.000000e+00 0.000000e+00
      endloop
   endfacet
   facet normal -1.000000e+00 0.000000e+00 -0.000000e+00
      outer loop
         vertex 0.000000e+00 1.016000e+02 1.016000e+02
         vertex 0.000000e+00 1.016000e+02 0.000000e+00
         vertex 0.000000e+00 0.000000e+00 0.000000e+00
      endloop
   endfacet
   facet normal 0.000000e+00 -1.000000e+00 0.000000e+00
      outer loop
         vertex 1.016000e+02 0.000000e+00 0.000000e+00
         vertex 0.000000e+00 0.000000e+00 1.016000e+02
         vertex 0.000000e+00 0.000000e+00 0.000000e+00
      endloop
   endfacet
   facet normal 0.000000e+00 0.000000e+00 -1.000000e+00
      outer loop
         vertex 6.349999e+00 6.349999e+00 0.000000e+00
         vertex 9.525000e+01 6.349999e+00 0.000000e+00
         vertex 1.016000e+02 0.000000e+00 0.000000e+00
      endloop
   endfacet
   facet normal 0.000000e+00 0.000000e+00 -1.000000e+00
      outer loop
         vertex 9.525000e+01 6.349999e+00 0.000000e+00
         vertex 1.016000e+02 1.016000e+02 0.000000e+00
         vertex 1.016000e+02 0.000000e+00 0.000000e+00
      endloop
   endfacet
   facet normal 1.000000e+00 0.000000e+00 0.000000e+00
      outer loop
         vertex 1.016000e+02 1.016000e+02 0.000000e+00
         vertex 1.016000e+02 0.000000e+00 1.016000e+02
         vertex 1.016000e+02 0.000000e+00 0.000000e+00
      endloop
   endfacet
   facet normal -0.000000e+00 -1.000000e+00 -0.000000e+00
      outer loop
         vertex 1.016000e+02 0.000000e+00 1.016000e+02
         vertex 0.000000e+00 0.000000e+00 1.016000e+02
         vertex 1.016000e+02 0.000000e+00 0.000000e+00
      endloop
   endfacet
   facet normal 0.000000e+00 0.000000e+00 1.000000e+00
      outer loop
         vertex 6.349999e+00 6.349999e+00 1.016000e+02
         vertex 0.000000e+00 1.016000e+02 1.016000e+02
         vertex 0.000000e+00 0.000000e+00 1.016000e+02
      endloop
   endfacet
   facet normal 0.000000e+00 0.000000e+00 1.000000e+00
      outer loop
         vertex 9.525000e+01 6.349999e+00 1.016000e+02
         vertex 6.349999e+00 6.349999e+00 1.016000e+02
         vertex 0.000000e+00 0.000000e+00 1.016000e+02
      endloop
   endfacet
   facet normal 0.000000e+00 0.000000e+00 1.000000e+00
      outer loop
         vertex 1.016000e+02 0.000000e+00 1.016000e+02
         vertex 9.525000e+01 6.349999e+00 1.016000e+02
         vertex 0.000000e+00 0.000000e+00 1.016000e+02
      endloop
   endfacet
   facet normal 0.000000e+00 0.000000e+00 1.000000e+00
      outer loop
         vertex 9.525000e+01 9.525000e+01 1.016000e+02
         vertex 9.525000e+01 6.349999e+00 1.016000e+02
         vertex 1.016000e+02 0.000000e+00 1.016000e+02
      endloop
   endfacet
   facet normal 0.000000e+00 0.000000e+00 1.000000e+00
      outer loop
         vertex 1.016000e+02 1.016000e+02 1.016000e+02
         vertex 9.525000e+01 9.525000e+01 1.016000e+02
         vertex 1.016000e+02 0.000000e+00 1.016000e+02
      endloop
   endfacet
   facet normal 1.000000e+00 0.000000e+00 -0.000000e+00
      outer loop
         vertex 1.016000e+02 1.016000e+02 0.000000e+00
         vertex 1.016000e+02 1.016000e+02 1.016000e+02
         vertex 1.016000e+02 0.000000e+00 1.016000e+02
      endloop
   endfacet
   facet normal 1.000000e+00 0.000000e+00 0.000000e+00
      outer loop
         vertex 6.349999e+00 9.525000e+01 0.000000e+00
         vertex 6.349999e+00 6.349999e+00 1.016000e+02
         vertex 6.349999e+00 6.349999e+00 0.000000e+00
      endloop
   endfacet
   facet normal -0.000000e+00 1.000000e+00 0.000000e+00
      outer loop
         vertex 6.349999e+00 6.349999e+00 1.016000e+02
         vertex 9.525000e+01 6.349999e+00 1.016000e+02
         vertex 6.349999e+00 6.349999e+00 0.000000e+00
      endloop
   endfacet
   facet normal 0.000000e+00 1.000000e+00 0.000000e+00
      outer loop
         vertex 9.525000e+01 6.349999e+00 1.016000e+02
         vertex 9.525000e+01 6.349999e+00 0.000000e+00
         vertex 6.349999e+00 6.349999e+00 0.000000e+00
      endloop
   endfacet
   facet normal 0.000000e+00 0.000000e+00 -1.000000e+00
      outer loop
         vertex 9.525000e+01 9.525000e+01 0.000000e+00
         vertex 1.016000e+02 1.016000e+02 0.000000e+00
         vertex 9.525000e+01 6.349999e+00 0.000000e+00
      endloop
   endfacet
   facet normal -1.000000e+00 0.000000e+00 0.000000e+00
      outer loop
         vertex 9.525000e+01 6.349999e+00 1.016000e+02
         vertex 9.525000e+01 9.525000e+01 1.016000e+02
         vertex 9.525000e+01 6.349999e+00 0.000000e+00
      endloop
   endfacet
   facet normal -1.000000e+00 0.000000e+00 -0.000000e+00
      outer loop
         vertex 9.525000e+01 9.525000e+01 1.016000e+02
         vertex 9.525000e+01 9.525000e+01 0.000000e+00
         vertex 9.525000e+01 6.349999e+00 0.000000e+00
      endloop
   endfacet
   facet normal 0.000000e+00 0.000000e+00 1.000000e+00
      outer loop
         vertex 6.349999e+00 9.525000e+01 1.016000e+02
         vertex 0.000000e+00 1.016000e+02 1.016000e+02
         vertex 6.349999e+00 6.349999e+00 1.016000e+02
      endloop
   endfacet
   facet normal 1.000000e+00 0.000000e+00 -0.000000e+00
      outer loop
         vertex 6.349999e+00 9.525000e+01 0.000000e+00
         vertex 6.349999e+00 9.525000e+01 1.016000e+02
         vertex 6.349999e+00 6.349999e+00 1.016000e+02
      endloop
   endfacet
   facet normal 0.000000e+00 0.000000e+00 -1.000000e+00
      outer loop
         vertex 0.000000e+00 1.016000e+02 0.000000e+00
         vertex 9.525000e+01 9.525000e+01 0.000000e+00
         vertex 6.349999e+00 9.525000e+01 0.000000e+00
      endloop
   endfacet
   facet normal 0.000000e+00 -1.000000e+00 0.000000e+00
      outer loop
         vertex 9.525000e+01 9.525000e+01 0.000000e+00
         vertex 6.349999e+00 9.525000e+01 1.016000e+02
         vertex 6.349999e+00 9.525000e+01 0.000000e+00
      endloop
   endfacet
   facet normal 0.000000e+00 0.000000e+00 -1.000000e+00
      outer loop
         vertex 0.000000e+00 1.016000e+02 0.000000e+00
         vertex 1.016000e+02 1.016000e+02 0.000000e+00
         vertex 9.525000e+01 9.525000e+01 0.000000e+00
      endloop
   endfacet
   facet normal -0.000000e+00 -1.000000e+00 -0.000000e+00
      outer loop
         vertex 9.525000e+01 9.525000e+01 1.016000e+02
         vertex 6.349999e+00 9.525000e+01 1.016000e+02
         vertex 9.525000e+01 9.525000e+01 0.000000e+00
      endloop
   endfacet
   facet normal 0.000000e+00 -0.000000e+00 1.000000e+00
      outer loop
         vertex 9.525000e+01 9.525000e+01 1.016000e+02
         vertex 1.016000e+02 1.016000e+02 1.016000e+02
         vertex 6.349999e+00 9.525000e+01 1.016000e+02
      endloop
   endfacet
   facet normal 0.000000e+00 0.000000e+00 1.000000e+00
      outer loop
         vertex 1.016000e+02 1.016000e+02 1.016000e+02
         vertex 0.000000e+00 1.016000e+02 1.016000e+02
         vertex 6.349999e+00 9.525000e+01 1.016000e+02
      endloop
   endfacet
   facet normal -0.000000e+00 1.000000e+00 0.000000e+00
      outer loop
         vertex 0.000000e+00 1.016000e+02 1.016000e+02
         vertex 1.016000e+02 1.016000e+02 1.016000e+02
         vertex 0.000000e+00 1.016000e+02 0.000000e+00
      endloop
   endfacet
   facet normal 0.000000e+00 1.000000e+00 0.000000e+00
      outer loop
         vertex 1.016000e+02 1.016000e+02 1.016000e+02
         vertex 1.016000e+02 1.016000e+02 0.000000e+00
         vertex 0.000000e+00 1.016000e+02 0.000000e+00
      endloop
   endfacet
endsolid